<svg xmlns="http://www.w3.org/2000/svg" viewBox="0 0 600 420" font-family="system-ui, sans-serif">
  <rect width="600" height="420" rx="12" fill="#1e293b"/>

  <!-- Window chrome -->
  <rect x="10" y="10" width="580" height="30" rx="6" fill="#334155"/>
  <circle cx="30" cy="25" r="6" fill="#ef4444"/>
  <circle cx="50" cy="25" r="6" fill="#f59e0b"/>
  <circle cx="70" cy="25" r="6" fill="#22c55e"/>
  <text x="300" y="29" text-anchor="middle" font-size="11" fill="#94a3b8">Venezuela Dev Notes — localhost:5173</text>

  <!-- Header bar -->
  <rect x="10" y="40" width="580" height="36" fill="#ffffff" stroke="#e2e8f0" stroke-width="1"/>
  <text x="30" y="63" font-size="13" font-weight="700" fill="#1e293b">Venezuela Dev Notes</text>
  <rect x="420" y="49" width="150" height="22" rx="4" fill="#f1f5f9" stroke="#cbd5e1" stroke-width="1"/>
  <text x="435" y="64" font-size="10" fill="#94a3b8">🔍 搜索笔记...</text>

  <!-- Sidebar -->
  <rect x="10" y="76" width="170" height="334" fill="#ffffff" stroke="#e2e8f0" stroke-width="1"/>
  <text x="25" y="100" font-size="11" font-weight="600" fill="#64748b">📁 guides</text>
  <text x="40" y="118" font-size="10" fill="#475569">Obsidian 语法支持</text>
  <text x="40" y="134" font-size="10" fill="#3b82f6" font-weight="600">系统架构</text>
  <text x="40" y="150" font-size="10" fill="#475569">API 参考</text>
  <text x="40" y="166" font-size="10" fill="#475569">站点配置</text>
  <text x="25" y="190" font-size="11" font-weight="600" fill="#64748b">📄 README.md</text>
  <text x="25" y="208" font-size="11" font-weight="600" fill="#64748b">📄 changelog.md</text>

  <!-- Main content -->
  <rect x="180" y="76" width="410" height="334" fill="#f8fafc"/>
  <text x="200" y="108" font-size="22" font-weight="700" fill="#1e293b">系统架构</text>

  <!-- Tags -->
  <rect x="200" y="116" width="40" height="16" rx="3" fill="#dbeafe"/>
  <text x="220" y="128" text-anchor="middle" font-size="8" fill="#2563eb">#guide</text>
  <rect x="245" y="116" width="70" height="16" rx="3" fill="#dbeafe"/>
  <text x="280" y="128" text-anchor="middle" font-size="8" fill="#2563eb">#architecture</text>

  <!-- Content text -->
  <text x="200" y="155" font-size="11" fill="#334155">Note System 采用前后端分离的架构...</text>
  <text x="200" y="172" font-size="11" fill="#334155">部署在 Cloudflare Pages 上。</text>

  <!-- Code block mock -->
  <rect x="200" y="185" width="370" height="60" rx="4" fill="#0f172a"/>
  <text x="210" y="202" font-size="10" fill="#e2e8f0" font-family="monospace">浏览器 → Cloudflare Pages</text>
  <text x="210" y="218" font-size="10" fill="#e2e8f0" font-family="monospace">           ├── 静态资源</text>
  <text x="210" y="234" font-size="10" fill="#e2e8f0" font-family="monospace">           └── Functions API</text>

  <!-- Callout mock -->
  <rect x="200" y="258" width="370" height="40" rx="4" fill="#eff6ff" stroke="#93c5fd" stroke-width="1"/>
  <text x="215" y="275" font-size="10" font-weight="600" fill="#1d4ed8">💡 note</text>
  <text x="215" y="290" font-size="10" fill="#334155">数据流：前端 → API → GitHub → KV 缓存</text>

  <!-- Backlinks section -->
  <line x1="200" y1="315" x2="570" y2="315" stroke="#e2e8f0" stroke-width="1"/>
  <text x="200" y="335" font-size="13" font-weight="600" fill="#1e293b">Backlinks</text>
  <rect x="200" y="345" width="180" height="28" rx="4" fill="#ffffff" stroke="#e2e8f0" stroke-width="1"/>
  <text x="210" y="363" font-size="10" fill="#334155">Obsidian 语法支持</text>
  <rect x="390" y="345" width="180" height="28" rx="4" fill="#ffffff" stroke="#e2e8f0" stroke-width="1"/>
  <text x="400" y="363" font-size="10" fill="#334155">性能优化</text>
</svg>
